# xmcd
#
# Track frame offsets: 
#        150
#        16202
#        34492
#        56494
#        72546
#        97001
#        114781
#        126398
#        154433
#        171463
#        200152
#        220350
#        241114
#        262754
#        290301
#        305082
#        325515
#
# Disc length: 4567 seconds
#
# Revision: 0
# Processed by: cddbd v1.5.2PL0 Copyright (c) Steve Scherf et al.
# Submitted via: ExactAudioCopy v0.95b3
#
DISCID=0011d511
DTITLE=The Rolling Stones  - Girls, Pills And Powders [CD2]
DYEAR=1900
DGENRE=
TTITLE0=Claudine, take 1
TTITLE1=Fiji Jim, take 1
TTITLE2=Never Let Her Go
TTITLE3=You Win Again
TTITLE4=Lucky In Love a.k.a.Do You Get Enough?
TTITLE5=Never Make Me Cry, take 1
TTITLE6=I Can't Help It, take 3
TTITLE7=No Spare Parts
TTITLE8=Everlasting Is My Love, Take 2
TTITLE9=Someone Know
TTITLE10=Start Me Up (AKA Never Stop)
TTITLE11=The Way She Held Me Tight
TTITLE12=And I Know
TTITLE13=Do You Think I Really Care a.k.a. Yellow Cap, take 2
TTITLE14=Black Limousine, take 2
TTITLE15=It's A Lie, take 2
TTITLE16=Petrol Gang
EXTD=
EXTT0=
EXTT1=
EXTT2=
EXTT3=
EXTT4=
EXTT5=
EXTT6=
EXTT7=
EXTT8=
EXTT9=
EXTT10=
EXTT11=
EXTT12=
EXTT13=
EXTT14=
EXTT15=
EXTT16=
PLAYORDER=
